<svg width="518" height="514" viewBox="0 0 518 514" fill="none" xmlns="http://www.w3.org/2000/svg">
<path fill-rule="evenodd" clip-rule="evenodd" d="M417.25 0.749996L318 1.01001L317.878 44.755C317.811 68.815 317.696 92.212 317.622 96.75C317.488 104.912 317.514 105.001 319.993 105.055C321.372 105.085 343.987 105.089 370.25 105.063L418 105.018V153.509V202H467.5H517V101C517 45.45 516.888 0.109991 516.75 0.244991C516.612 0.379991 471.837 0.606996 417.25 0.749996ZM165.755 210.562L166.011 420.124L161.255 419.483C137.279 416.248 116.771 397.493 107.359 370.192C105.522 364.862 104.014 359.349 104.009 357.941C103.989 352.296 105.839 352.477 51.103 352.768L0.705994 353.037L1.295 361.268C2.995 385.026 13.836 418.537 26.705 439.812C54.852 486.348 96.911 512 145.066 512C168.493 512 187.809 505.982 208.465 492.247C236.088 473.881 258.102 442.008 266.999 407.503C273.375 382.777 273.131 391.291 273.324 186.867L273.5 0.999996H219.5H165.5L165.755 210.562ZM318.667 243.667C318.3 244.033 318 266.308 318 293.167V342H368H418L417.994 347.25C417.979 360.966 412.716 382.72 406.385 395.237C399.399 409.05 388.714 421.083 375.545 429.97C361.001 439.784 348.148 443.939 330.5 444.532C324.45 444.735 319.163 444.923 318.75 444.951C318.337 444.978 318 460.3 318 479V513L337.25 513.107C389.223 513.395 403.857 510.86 431 496.865C445.996 489.133 457.116 480.719 470.019 467.339C492.442 444.088 505.806 417.932 513.623 382L516.343 369.5L516.921 306.76C517.398 255.033 517.266 243.931 516.168 243.51C514.164 242.742 319.437 242.896 318.667 243.667Z" fill="black"/>
</svg>
